<svg width="43" height="43" viewBox="0 0 43 43" fill="none" xmlns="http://www.w3.org/2000/svg">
<path d="M40.3179 15.0004C40.2984 14.9808 40.2778 14.9631 40.2578 14.9439C40.042 14.7344 39.819 14.5378 39.5879 14.3546C39.3507 14.1661 39.1057 13.9911 38.8546 13.8303C38.329 13.4936 37.7756 13.218 37.2041 13.0023C36.5539 12.7564 35.8807 12.5885 35.1989 12.5C34.3696 12.3924 33.5279 12.3996 32.7005 12.5244C31.294 12.7363 29.9295 13.285 28.7364 14.1676C29.5891 12.9779 30.1152 11.6247 30.3148 10.2327C30.4337 9.40319 30.4356 8.55986 30.3224 7.72944C30.2293 7.04731 30.0575 6.37427 29.8078 5.72419C29.5886 5.15352 29.3103 4.60102 28.9708 4.07627C28.6509 3.58261 28.2771 3.11383 27.8503 2.67805C27.8312 2.65844 27.813 2.63787 27.7935 2.61826C24.3092 -0.872752 18.6397 -0.872752 15.1554 2.61826C15.1358 2.63787 15.1176 2.65844 15.0986 2.67805C14.888 2.89283 14.6903 3.11526 14.5061 3.34487C14.316 3.58166 14.1403 3.82562 13.978 4.07627C13.6381 4.60102 13.3597 5.15352 13.1406 5.72419C12.8914 6.37427 12.719 7.04731 12.6259 7.72992C12.5128 8.56034 12.5147 9.40319 12.6336 10.2331C12.8498 11.7399 13.4485 13.2018 14.4301 14.4594C10.9268 11.7155 5.83637 11.9552 2.61322 15.1846C-0.871075 18.6756 -0.871075 24.3555 2.61322 27.847C2.6328 27.8666 2.65333 27.8848 2.6729 27.9039C2.88727 28.1149 3.10928 28.3129 3.33844 28.4976C3.57477 28.6879 3.81826 28.864 4.06844 29.0266C4.59218 29.3672 5.14361 29.6461 5.71319 29.8656C6.36202 30.1158 7.03377 30.288 7.71459 30.3813C8.54341 30.4947 9.38464 30.4928 10.213 30.3736C11.7842 30.1474 13.3053 29.5016 14.5972 28.4387C13.5669 29.7298 12.9449 31.2409 12.7319 32.7979C12.6183 33.6283 12.6221 34.4712 12.741 35.3011C12.8384 35.9828 13.015 36.6549 13.269 37.303C13.492 37.8723 13.7737 38.4233 14.117 38.9452C14.4402 39.437 14.8169 39.9029 15.247 40.3358C15.2666 40.3554 15.2847 40.376 15.3043 40.3956C18.8115 43.8636 24.4806 43.8258 27.9419 40.3119C27.9615 40.2923 27.9792 40.2717 27.9983 40.2516C28.2074 40.0354 28.4036 39.812 28.5865 39.581C28.7746 39.3432 28.9493 39.0978 29.1097 38.8462C29.4459 38.3195 29.7209 37.7651 29.9362 37.193C30.1816 36.541 30.3492 35.867 30.4375 35.1839C30.5449 34.3531 30.5377 33.5097 30.4131 32.6807C30.1873 31.1754 29.5786 29.7173 28.5889 28.4665C32.1104 31.1873 37.1994 30.9137 40.4005 27.6633C43.8619 24.1493 43.8242 18.4694 40.317 15.0013L40.3179 15.0004ZM25.0993 17.7045L24.6945 17.2989L23.9788 16.5818L23.2827 15.8844L22.7336 15.3343L21.7382 14.3364L21.4756 14.0733L20.2348 12.8301L18.9767 11.5696L18.9094 11.5022C17.9813 10.5723 17.6681 9.25873 17.9617 8.0662C18.0386 7.75336 18.157 7.44961 18.3184 7.16307C18.463 6.90524 18.6411 6.66176 18.854 6.43885C18.8731 6.41876 18.8898 6.39723 18.9094 6.37762C20.3197 4.96457 22.6143 4.96457 24.0241 6.37762C24.0471 6.40058 24.0662 6.42546 24.0881 6.44842C24.5359 6.92151 24.831 7.48548 24.9752 8.08103C25.2631 9.26973 24.9485 10.5761 24.0241 11.5022C24.0046 11.5218 23.9831 11.5386 23.963 11.5577L22.7695 10.3618C22.79 10.3432 22.811 10.3259 22.8306 10.3063C22.937 10.1996 23.0258 10.0825 23.1013 9.95856C23.5343 9.24869 23.4507 8.31016 22.8497 7.68926C22.843 7.68256 22.8372 7.67491 22.8306 7.66774C22.1049 6.94064 20.9237 6.94016 20.1975 7.66774C20.1779 7.68735 20.1608 7.70887 20.1421 7.72896C19.9225 7.96957 19.7769 8.25372 19.7062 8.55269C19.5616 9.16258 19.7239 9.83084 20.198 10.3058L20.2181 10.3259L21.4761 11.5864L22.3388 12.4508L22.7169 12.8296L23.7315 13.8461L23.975 14.0901L25.0458 15.163L25.2206 15.3381L26.333 16.4527L25.1003 17.704L25.0993 17.7045ZM14.3404 9.44625C14.2874 8.67275 14.3581 7.89304 14.5533 7.1382C14.7114 6.52687 14.951 5.93228 15.2728 5.37213C15.4222 5.11142 15.5903 4.85886 15.7751 4.6149C15.9532 4.3805 16.147 4.15424 16.3575 3.93803C16.3766 3.91842 16.3948 3.89785 16.4144 3.87823C19.2049 1.08227 23.7453 1.08227 26.5359 3.87823C26.5555 3.89785 26.5736 3.91842 26.5927 3.93803C27.0224 4.37859 27.3838 4.86077 27.6775 5.37213C27.9988 5.93228 28.2384 6.52639 28.3969 7.1382C28.5922 7.89256 28.6629 8.67275 28.6099 9.44625C28.4953 11.1123 27.8064 12.7459 26.5383 14.0169L26.5335 14.0217C26.5149 14.0403 26.4953 14.0576 26.4762 14.0762L25.2325 12.8301L25.222 12.8196C25.2416 12.8004 25.2621 12.7823 25.2817 12.7627C26.3984 11.6438 26.9222 10.1532 26.8534 8.68519C26.8214 7.99971 26.66 7.31902 26.3693 6.68377C26.1225 6.14371 25.7811 5.63665 25.3471 5.18653C25.3251 5.16357 25.3041 5.13965 25.2812 5.11717C23.1772 3.00907 19.754 3.00907 17.6499 5.11717C17.6304 5.13678 17.6122 5.15735 17.5931 5.17696C17.3821 5.39509 17.193 5.62661 17.0259 5.86913C16.8493 6.12553 16.6956 6.39341 16.5681 6.67085C16.2764 7.30467 16.1136 7.98345 16.0797 8.66797C16.0061 10.1418 16.5299 11.64 17.6504 12.7631L17.7177 12.8306L18.9758 14.091L20.2166 15.3343L20.9786 16.0977L21.4751 16.5952L22.6926 17.815L22.7208 17.8432L23.8494 18.9741L22.6124 20.2302L21.4751 19.0912L20.23 17.8437L20.1942 17.8078L18.972 16.5833L17.7311 15.34L16.4731 14.0796L16.4148 14.0212C15.1458 12.7497 14.4559 11.1152 14.3409 9.44816L14.3404 9.44625ZM15.1358 17.9384L16.4296 16.6421L16.4726 16.599L17.7134 17.8423L17.267 18.2895L15.8553 19.704L14.3108 21.2515L11.482 24.0857C10.5534 25.0156 9.24285 25.3294 8.05261 25.0352C7.74037 24.9582 7.4372 24.8396 7.15122 24.6779C6.89388 24.533 6.65087 24.3545 6.42838 24.1412C6.40833 24.1221 6.38685 24.1053 6.36727 24.0857C4.95694 22.6727 4.95694 20.3737 6.36727 18.9611C7.77713 17.5486 10.0721 17.5486 11.482 18.9611C11.5016 18.9807 11.5183 19.0023 11.5374 19.0224L10.3438 20.2182C10.3252 20.1977 10.308 20.1766 10.2884 20.157C9.56273 19.4294 8.38156 19.4299 7.65538 20.157C6.92969 20.8841 6.92969 22.0676 7.65538 22.7951C7.67496 22.8147 7.69644 22.832 7.7165 22.8506C7.95664 23.0707 8.24024 23.2166 8.53863 23.2878C9.14688 23.4328 9.81433 23.2701 10.2884 22.7951L12.4297 20.6497L13.8224 19.2544L15.1363 17.9379L15.1358 17.9384ZM9.42952 28.6635C8.65751 28.7166 7.8793 28.6458 7.12591 28.4502C6.51575 28.2919 5.92231 28.0517 5.36323 27.7293C5.10303 27.5796 4.85095 27.4117 4.60746 27.2261C4.37304 27.0477 4.14769 26.8535 3.93189 26.6425C3.91232 26.6234 3.89179 26.6052 3.87221 26.5856C1.08162 23.7896 1.08162 19.2405 3.87221 16.4445C6.6628 13.6486 11.2037 13.6486 13.9938 16.4445C14.0133 16.4641 14.0315 16.4847 14.0506 16.5043L12.7959 17.7614C12.7768 17.7418 12.7587 17.7212 12.7391 17.7016C10.635 15.5935 7.21185 15.5935 5.10828 17.7016C3.00472 19.8097 3.00424 23.2395 5.10828 25.3476C5.12786 25.3672 5.14839 25.3854 5.16796 25.4045C5.38567 25.616 5.61675 25.8054 5.85881 25.9728C6.11471 26.1498 6.38207 26.3038 6.65898 26.4316C7.29158 26.7238 7.96906 26.8869 8.65226 26.9209C10.1232 26.9946 11.6185 26.4698 12.7396 25.3471L16.0677 22.0125L17.7812 20.2957L18.9715 19.1032L20.2166 20.3507L17.7736 22.7985L13.9938 26.5856C12.7248 27.857 11.0934 28.5487 9.42952 28.6635ZM18.3083 25.6935L19.0283 26.4057L19.7292 27.0989L20.2816 27.6451L21.2837 28.6363L21.5477 28.8975L22.7967 30.1326L24.0628 31.3849L24.1306 31.4518C25.0649 32.376 25.3867 33.6872 25.1008 34.8816C25.0258 35.195 24.9093 35.4992 24.7503 35.7872C24.6071 36.0459 24.4309 36.2904 24.2194 36.5147C24.2003 36.5348 24.1841 36.5568 24.1645 36.5764C22.7637 37.9986 20.4692 38.0139 19.0498 36.6104C19.0269 36.5879 19.0073 36.563 18.9853 36.5401C18.5342 36.0699 18.2358 35.5078 18.0878 34.9137C17.7922 33.7269 18.0978 32.4186 19.0164 31.4863C19.0359 31.4667 19.0574 31.4499 19.0775 31.4303L20.2792 32.6185C20.2591 32.6372 20.2376 32.6544 20.2181 32.6745C20.1121 32.7821 20.0242 32.8998 19.9497 33.0237C19.5215 33.7365 19.6112 34.674 20.2161 35.2911C20.2228 35.2978 20.2286 35.3055 20.2357 35.3121C20.9662 36.0345 22.1474 36.0268 22.8688 35.2949C22.8883 35.2753 22.905 35.2538 22.9237 35.2332C23.1418 34.9912 23.2856 34.7061 23.3543 34.4066C23.4951 33.7963 23.328 33.1285 22.8511 32.6568L22.8306 32.6367L21.5644 31.3844L20.696 30.5258L20.3155 30.1493L19.2942 29.1395L19.0493 28.8975L17.9717 27.8317L17.796 27.658L16.6693 26.544L16.6106 26.4861L17.8514 25.2428L18.3083 25.6944V25.6935ZM28.7135 33.4772C28.7717 34.2502 28.7063 35.0304 28.5158 35.7862C28.3616 36.399 28.1258 36.995 27.8083 37.557C27.6603 37.8187 27.4946 38.0727 27.3113 38.3176C27.1346 38.5535 26.9422 38.7807 26.7331 38.9983C26.714 39.0179 26.6963 39.039 26.6768 39.0586C23.9048 41.8727 19.3644 41.9029 16.5552 39.1256C16.5356 39.106 16.5175 39.0854 16.4979 39.0658C16.0654 38.6281 15.7006 38.1483 15.4036 37.6388C15.0785 37.0811 14.835 36.4879 14.6727 35.8776C14.4726 35.1242 14.3967 34.3449 14.4445 33.5709C14.5481 31.9044 15.2265 30.266 16.4855 28.9864L16.4903 28.9816C16.5089 28.963 16.5285 28.9453 16.5471 28.9266L17.7994 30.1646L17.8099 30.1751C17.7903 30.1943 17.7698 30.2129 17.7507 30.2325C16.6416 31.3586 16.1274 32.8529 16.2057 34.3205C16.242 35.006 16.4081 35.6853 16.7032 36.3191C16.9539 36.8577 17.2981 37.3624 17.7349 37.8096C17.7574 37.8326 17.7784 37.856 17.8013 37.8785C19.9192 39.9722 23.3424 39.9498 25.4321 37.8283C25.4517 37.8087 25.4693 37.7881 25.4884 37.768C25.698 37.5484 25.8856 37.3155 26.0513 37.072C26.2265 36.8142 26.3784 36.5453 26.5039 36.2674C26.7913 35.6317 26.9498 34.9515 26.9794 34.2669C27.0429 32.7927 26.5097 31.2983 25.3815 30.1823L25.3137 30.1153L24.0475 28.863L22.7986 27.6279L22.0318 26.8697L21.5324 26.3756L20.3073 25.1639L20.2792 25.1362L19.1104 23.9805L20.3556 22.7329L21.5157 23.88L22.7695 25.1194L22.8053 25.1548L24.0356 26.3713L25.2846 27.6064L26.5507 28.8587L26.6094 28.9166C27.887 30.1799 28.5879 31.8097 28.7135 33.4758V33.4772ZM27.8617 24.9908L26.5765 26.2957L26.534 26.3388L25.285 25.1036L25.7286 24.653L27.1308 23.229L28.6653 21.671L31.4754 18.8181C32.3978 17.882 33.7065 17.5596 34.8986 17.8461C35.2113 17.9212 35.515 18.0379 35.8024 18.1972C36.0607 18.3407 36.3046 18.5172 36.5286 18.7291C36.5486 18.7483 36.5706 18.7645 36.5902 18.7841C38.0096 20.1876 38.0248 22.4866 36.6241 23.9087C35.2233 25.3309 32.9287 25.3462 31.5093 23.9427C31.4893 23.9231 31.473 23.9015 31.4535 23.8819L32.6394 22.6779C32.658 22.698 32.6752 22.7195 32.6953 22.7387C33.4257 23.4615 34.6069 23.4533 35.3283 22.7215C36.0492 21.9896 36.0416 20.8061 35.3111 20.0833C35.2911 20.0637 35.2701 20.047 35.2495 20.0283C35.0079 19.8097 34.7234 19.6657 34.4245 19.5969C33.8153 19.4557 33.1488 19.6232 32.6781 20.101L30.5511 22.2603L29.1675 23.6652L27.8622 24.9903L27.8617 24.9908ZM39.1349 26.41C36.3629 29.2242 31.822 29.2543 29.0133 26.477C28.9937 26.4574 28.9756 26.4373 28.956 26.4177L30.2021 25.1524C30.2212 25.1721 30.2398 25.1926 30.2594 25.2118C32.3773 27.3055 35.8005 27.283 37.8902 25.1615C39.9799 23.0396 39.9575 19.6098 37.8401 17.516C37.8205 17.4964 37.8 17.4787 37.7799 17.4596C37.5608 17.2496 37.3283 17.0616 37.0853 16.8956C36.8279 16.7201 36.5596 16.5679 36.2822 16.4421C35.6477 16.1542 34.9688 15.9954 34.2856 15.9657C32.8141 15.9016 31.3222 16.4364 30.2088 17.5667L26.9026 20.9233L25.2005 22.6516L24.0184 23.8518L22.7647 22.6124L25.1915 20.1484L28.9465 16.3364C30.2074 15.0564 31.834 14.3541 33.4973 14.2283C34.2689 14.17 35.0476 14.2355 35.8019 14.4264C36.4135 14.5809 37.0079 14.8172 37.5694 15.1353C37.8305 15.2836 38.084 15.4496 38.3285 15.6332C38.5639 15.8102 38.7911 16.003 39.0079 16.2125C39.0279 16.2317 39.0485 16.2498 39.068 16.269C41.8768 19.0463 41.9068 23.5954 39.1349 26.41Z" fill="#242424"/>
</svg>
